# xmcd CD database file
#
# Track frame offsets:
#	150
#	22555
#	46281
#	61233
#	89374
#	107001
#	128208
#	143467
#	163391
#	179052
#	196929
#	219443
#	241194
#	268309
#	281669
#	294926
#
# Disc length: 4167 seconds
#
# Revision: 0
# Processed by: cddbd v1.5.2PL0 Copyright (c) Steve Scherf et al.
# Submitted via: CDex 1.70beta3
#
DISCID=e6104510
DTITLE=Teddy Wilson - The Teddy Wilson Trio
DYEAR=1979
DGENRE=Jazz
TTITLE0=Honeysuckle Rose
TTITLE1=I'm Gonna Sit Right Down And Write Myself A Letter
TTITLE2=I've Got A Feeling I'm Falling - Ain't Misbehavin'
TTITLE3=St. Louis Blues
TTITLE4=In A Sentimental Mood - Mood Indigo
TTITLE5=Perdido
TTITLE6=Satin Doll
TTITLE7=Take The 'A' Train
TTITLE8=Body And Soul
TTITLE9=Basin Street Blues
TTITLE10=Avalon
TTITLE11=Moonglow
TTITLE12=I'll Remember April
TTITLE13=Who Cares?
TTITLE14=Someone To Watch Over Me
TTITLE15=S' Wonderful
EXTD=YEAR: 1979
EXTT0=
EXTT1=
EXTT2=
EXTT3=
EXTT4=
EXTT5=
EXTT6=
EXTT7=
EXTT8=
EXTT9=
EXTT10=
EXTT11=
EXTT12=
EXTT13=
EXTT14=
EXTT15=
PLAYORDER=
